<svg xmlns="http://www.w3.org/2000/svg" version="1.1" xmlns:xlink="http://www.w3.org/1999/xlink" xmlns:svgjs="http://svgjs.dev/svgjs" width="155.2" height="87.2"><g><svg viewBox="0 0 395.52 247.2" height="87.2" width="155.2" xmlns="http://www.w3.org/2000/svg" version="1.1" xmlns:xlink="http://www.w3.org/1999/xlink" xmlns:svgjs="http://svgjs.com/svgjs" x="0" y="0" viewbox="0 0 155.2 87.2"><g><svg></svg></g><g><svg viewBox="0 0 395.52 247.2" height="247.2" width="395.52"><g transform="matrix(1,0,0,1,75.54432,81.65196790731355)"><svg viewBox="0 0 244.43135999999998 83.8960641853729" height="83.8960641853729" width="244.43135999999998"><g><svg viewBox="0 0 244.43135999999998 83.8960641853729" height="83.8960641853729" width="244.43135999999998"><g><svg viewBox="0 0 244.43135999999998 83.8960641853729" height="83.8960641853729" width="244.43135999999998"><g><svg viewBox="0 0 244.43135999999998 83.8960641853729" height="83.8960641853729" width="244.43135999999998"><g><svg viewBox="0 0 244.43135999999998 83.8960641853729" height="83.8960641853729" width="244.43135999999998"><g><svg viewBox="0 0 244.43135999999998 83.8960641853729" height="83.8960641853729" width="244.43135999999998"><g transform="matrix(1,0,0,1,0,0)"><svg width="244.43135999999998" viewBox="2.5 -35 138.08999633789062 47.400001525878906" height="83.8960641853729" data-palette-color="#89939e"><path d="M5.15-33.95L2.5-34.25 2.55-35 13.25-35Q24.05-35 24.05-26.55L24.05-26.55Q24.05-23.3 19.75-19.45L19.75-19.45Q26.1-17.9 26.1-10.35L26.1-10.35Q26.1-4.45 23.13-2.23 20.15 0 14 0L14 0 12.55 0 2.5 0.05 2.55-0.65 5.15-1Q5.65-1.05 5.75-1.65L5.75-1.65 5.75-33.25Q5.65-33.9 5.15-33.95L5.15-33.95ZM15-19.15L15-19.15 9.15-19.15 9.15-0.75 13.75-0.75Q22.7-0.75 22.7-10.15L22.7-10.15Q22.7-14.95 20.78-17.05 18.85-19.15 15-19.15ZM9.15-19.9L15.25-19.9Q17.1-19.9 18.45-19.7L18.45-19.7Q20.65-23.15 20.65-26.25L20.65-26.25Q20.65-34.25 13-34.25L13-34.25 9.15-34.25 9.15-19.9ZM37.4 0L27.35 0.05 27.4-0.65 30-1Q30.35-1.05 30.6-1.65L30.6-1.65 41.4-35 44.7-35 56.2-0.95 59.65-0.75Q59.65-0.7 59.6 0L59.6 0 49.6 0.05Q49.6-0.4 49.65-0.65L49.65-0.65 52.25-1Q52.65-1.05 52.65-1.6L52.65-1.6 49.9-9.75 34.3-9.75 31.65-1.05 37.45-0.75Q37.45-0.7 37.4 0L37.4 0ZM49.55-10.75L41.75-34.05 34.6-10.75 49.55-10.75ZM61.59-34.95L71.64-35Q71.64-34.95 71.69-34.25L71.69-34.25 68.25-33.95 68.25-1 82.05-1 83.05-9 84-8.75 83.25 0 71.64 0 61.59 0.05 61.64-0.65 64.25-1Q64.75-1.05 64.84-1.65L64.84-1.65 64.84-33.3Q64.75-33.9 64.25-33.95L64.25-33.95 61.64-34.2 61.59-34.95ZM95.49 0L85.44 0.05 85.49-0.65 88.09-1Q88.44-1.05 88.69-1.65L88.69-1.65 99.49-35 102.79-35 114.29-0.95 117.74-0.75Q117.74-0.7 117.69 0L117.69 0 107.69 0.05Q107.69-0.4 107.74-0.65L107.74-0.65 110.34-1Q110.74-1.05 110.74-1.6L110.74-1.6 107.99-9.75 92.39-9.75 89.74-1.05 95.54-0.75Q95.54-0.7 95.49 0L95.49 0ZM107.64-10.75L99.84-34.05 92.69-10.75 107.64-10.75ZM117.34-34.95L126.39-35Q126.39-34.95 126.44-34.25L126.44-34.25 124.49-34 124.49 0Q124.64 6 117.29 12.4L117.29 12.4 116.69 11.95Q121.14 5.9 121.09 0L121.09 0 121.09-33.4Q120.99-33.85 120.49-33.95L120.49-33.95 117.39-34.2 117.34-34.95ZM140.54 0L130.49 0.05 130.54-0.65 133.14-1Q133.64-1.05 133.74-1.65L133.74-1.65 133.79-1.65 133.79-33.25 133.74-33.25Q133.64-33.9 133.14-33.95L133.14-33.95 130.54-34.2 130.49-34.95 140.54-35Q140.54-34.95 140.59-34.25L140.59-34.25 137.19-33.95 137.19-0.95 140.59-0.75Q140.59-0.7 140.54 0L140.54 0Z" opacity="1" transform="matrix(1,0,0,1,0,0)" fill="#89939e" class="undefined-text-0" data-fill-palette-color="primary" id="text-0"></path></svg></g></svg></g></svg></g></svg></g></svg></g></svg></g></svg></g><path d="M215.494 75.652L215.494 21.239 10.773 21.239 10.773 225.961 215.494 225.961 215.494 171.548 207.928 171.548 207.928 218.395 18.339 218.395 18.339 28.805 207.928 28.805 207.928 75.652Z" fill="#89939e" stroke="transparent" data-fill-palette-color="primary"></path></svg></g><defs></defs></svg></g></svg>